<svg width="1781" height="1512" xmlns="http://www.w3.org/2000/svg" xmlns:xlink="http://www.w3.org/1999/xlink" xml:space="preserve" overflow="hidden"><g transform="translate(-1139 -397)"><rect x="1594.5" y="782.5" width="153" height="273" stroke="#042433" stroke-width="6.875" stroke-miterlimit="8" fill="#0070C0"/><rect x="2091.5" y="876.5" width="154" height="179" stroke="#042433" stroke-width="6.875" stroke-miterlimit="8" fill="#0070C0"/><rect x="2592.5" y="954.5" width="154" height="103" stroke="#042433" stroke-width="6.875" stroke-miterlimit="8" fill="#0070C0"/><rect x="2596.5" y="1623.5" width="150" height="273" stroke="#042433" stroke-width="6.875" stroke-miterlimit="8" fill="#0070C0"/><rect x="2095.5" y="1713.5" width="150" height="179" stroke="#042433" stroke-width="6.875" stroke-miterlimit="8" fill="#0070C0"/><rect x="1598.5" y="1784.5" width="150" height="103" stroke="#042433" stroke-width="6.875" stroke-miterlimit="8" fill="#0070C0"/><rect x="2096.5" y="1210.5" width="151" height="264" stroke="#042433" stroke-width="6.875" stroke-miterlimit="8" fill="#0070C0"/><rect x="1597.5" y="1302.5" width="151" height="172" stroke="#042433" stroke-width="6.875" stroke-miterlimit="8" fill="#0070C0"/><rect x="2592.5" y="1303.5" width="151" height="171" stroke="#042433" stroke-width="6.875" stroke-miterlimit="8" fill="#0070C0"/><path d="M1679.87 796.918 2649.33 963.748 2647.58 973.911 1678.13 807.081ZM2645.99 952.71 2673.86 973.202 2640.75 983.2Z" fill="#FF0000"/><path d="M2168.17 1220.98 2634.08 1329.3 2631.75 1339.34 2165.83 1231.02ZM2631.4 1318.09 2658.03 1340.16 2624.39 1348.22Z" fill="#FF0000"/><path d="M1.14783-5.02687 455.963 98.8255 453.668 108.879-1.14783 5.02687ZM453.232 87.6239 479.949 109.591 446.345 117.785Z" fill="#FF0000" transform="matrix(-1 0 0 1 2166.95 1226)"/><path d="M0.859236-5.08415 986.629 161.514 984.911 171.682-0.859236 5.08415ZM983.265 150.486 1011.19 170.894 978.109 180.991Z" fill="#FF0000" transform="matrix(-1 0 0 1 2671.19 1646)"/><path d="M1664 1167C1664 1152.64 1664 1141 1664 1141L2167 1141C2167 1141 2167 1152.64 2167 1167" stroke="#00B050" stroke-width="10.3125" stroke-miterlimit="8" fill="none" fill-rule="evenodd"/><path d="M1664 718C1664 703.641 1664 692 1664 692L2676 692C2676 692 2676 703.641 2676 718" stroke="#00B050" stroke-width="10.3125" stroke-miterlimit="8" fill="none" fill-rule="evenodd"/><path d="M2170 817C2170 802.641 2170 791 2170 791L2673 791C2673 791 2673 802.641 2673 817" stroke="#00B050" stroke-width="10.3125" stroke-miterlimit="8" fill="none" fill-rule="evenodd"/><path d="M1664 762C1664 747.641 1664 736 1664 736L2167 736C2167 736 2167 747.641 2167 762" stroke="#00B050" stroke-width="10.3125" stroke-miterlimit="8" fill="none" fill-rule="evenodd"/><path d="M2185 1167C2185 1152.64 2185 1141 2185 1141L2688 1141C2688 1141 2688 1152.64 2688 1167" stroke="#00B050" stroke-width="10.3125" stroke-miterlimit="8" fill="none" fill-rule="evenodd"/><path d="M26.0003 503C11.6407 503 0 503 0 503L0 0C-8.00496e-15 0 11.6407 0 26.0003 0" stroke="#00B050" stroke-width="10.3125" stroke-miterlimit="8" fill="none" fill-rule="evenodd" transform="matrix(1.83697e-16 1 1 -1.83697e-16 1677 1633)"/><path d="M26.0001 503C11.6407 503 0 503 0 503L0 0C-8.0049e-15 0 11.6407 0 26.0001 0" stroke="#00B050" stroke-width="10.3125" stroke-miterlimit="8" fill="none" fill-rule="evenodd" transform="matrix(1.83697e-16 1 1 -1.83697e-16 2174 1583)"/><path d="M1671 1554.05C1671 1539.66 1671 1528 1671 1528L2677 1528C2677 1528 2677 1539.66 2677 1554.05" stroke="#00B050" stroke-width="10.3125" stroke-miterlimit="8" fill="none" fill-rule="evenodd"/><path d="M961.403 746.272 961.403 2021.54" stroke="#000000" stroke-width="10.4577" stroke-linejoin="round" stroke-miterlimit="10" fill="none" fill-rule="evenodd" transform="matrix(1.00015 0 0 1 453.376 -118.155)"/><path d="M956.174 751.5 2460.69 751.5" stroke="#000000" stroke-width="10.4577" stroke-linejoin="round" stroke-miterlimit="10" fill="none" fill-rule="evenodd" transform="matrix(1.00015 0 0 1 453.376 -118.155)"/><path d="M956.174 1173.1 2460.69 1173.1" stroke="#000000" stroke-width="4.64788" stroke-linejoin="round" stroke-miterlimit="10" fill="none" fill-rule="evenodd" transform="matrix(1.00015 0 0 1 453.376 -118.155)"/><path d="M956.174 1594.71 2460.69 1594.71" stroke="#000000" stroke-width="4.64788" stroke-linejoin="round" stroke-miterlimit="10" fill="none" fill-rule="evenodd" transform="matrix(1.00015 0 0 1 453.376 -118.155)"/><path d="M2455.46 746.272 2455.46 2021.54" stroke="#000000" stroke-width="10.4577" stroke-linejoin="round" stroke-miterlimit="10" fill="none" fill-rule="evenodd" transform="matrix(1.00015 0 0 1 453.376 -118.155)"/><path d="M956.174 2016.31 2460.69 2016.31" stroke="#000000" stroke-width="10.4577" stroke-linejoin="round" stroke-miterlimit="10" fill="none" fill-rule="evenodd" transform="matrix(1.00015 0 0 1 453.376 -118.155)"/><text font-family="Cambria Math,Cambria Math_MSFontService,sans-serif" font-weight="700" font-size="128" transform="matrix(1.01424 0 0 1.01408 2570.68 563)">SL</text><text font-family="Cambria Math,Cambria Math_MSFontService,sans-serif" font-weight="700" font-size="86" transform="matrix(1.01424 0 0 1.01408 2702.58 595)">3</text><text font-family="Cambria Math,Cambria Math_MSFontService,sans-serif" font-weight="700" font-size="128" transform="matrix(1.01424 0 0 1.01408 2072.57 563)">SL</text><text font-family="Cambria Math,Cambria Math_MSFontService,sans-serif" font-weight="700" font-size="86" transform="matrix(1.01424 0 0 1.01408 2204.49 595)">2</text><text font-family="Cambria Math,Cambria Math_MSFontService,sans-serif" font-weight="700" font-size="128" transform="matrix(1.01424 0 0 1.01408 1574.48 563)">SL</text><text font-family="Cambria Math,Cambria Math_MSFontService,sans-serif" font-weight="700" font-size="86" transform="matrix(1.01424 0 0 1.01408 1706.38 595)">1</text><text font-family="Cambria Math,Cambria Math_MSFontService,sans-serif" font-weight="700" font-size="128" transform="matrix(1.01424 0 0 1.01408 1187.66 893)">SL</text><text font-family="Cambria Math,Cambria Math_MSFontService,sans-serif" font-weight="700" font-size="86" transform="matrix(1.01424 0 0 1.01408 1319.56 924)">1</text><text font-family="Cambria Math,Cambria Math_MSFontService,sans-serif" font-weight="700" font-size="128" transform="matrix(1.01424 0 0 1.01408 1187.66 1314)">SL</text><text font-family="Cambria Math,Cambria Math_MSFontService,sans-serif" font-weight="700" font-size="86" transform="matrix(1.01424 0 0 1.01408 1319.56 1345)">2</text><text font-family="Cambria Math,Cambria Math_MSFontService,sans-serif" font-weight="700" font-size="128" transform="matrix(1.01424 0 0 1.01408 1187.66 1736)">SL</text><text font-family="Cambria Math,Cambria Math_MSFontService,sans-serif" font-weight="700" font-size="86" transform="matrix(1.01424 0 0 1.01408 1319.56 1767)">3</text></g></svg>